<svg width="14" height="10" viewBox="0 0 14 10" fill="none" xmlns="http://www.w3.org/2000/svg">
<path d="M12.5883 0.531006H1.61419C1.40629 0.531006 1.20691 0.612164 1.05991 0.756626C0.912908 0.901088 0.830322 1.09702 0.830322 1.30132V9.00447C0.830322 9.20877 0.912908 9.40471 1.05991 9.54917C1.20691 9.69363 1.40629 9.77479 1.61419 9.77479H12.5883C12.7962 9.77479 12.9955 9.69363 13.1425 9.54917C13.2895 9.40471 13.3721 9.20877 13.3721 9.00447V1.30132C13.3721 1.09702 13.2895 0.901088 13.1425 0.756626C12.9955 0.612164 12.7962 0.531006 12.5883 0.531006ZM11.9847 9.00447H2.26479L5.00831 6.21593L4.44393 5.68056L1.61419 8.55769V1.88676L6.48589 6.65116C6.63276 6.79463 6.83143 6.87516 7.03852 6.87516C7.2456 6.87516 7.44427 6.79463 7.59114 6.65116L12.5883 1.76736V8.50762L9.70365 5.67286L9.15103 6.21593L11.9847 9.00447ZM2.12762 1.30132H11.9533L7.03852 6.10424L2.12762 1.30132Z" fill="white"/>
</svg>
