<svg width="14" height="14" viewBox="0 0 14 14" fill="none" xmlns="http://www.w3.org/2000/svg">
<path fill-rule="evenodd" clip-rule="evenodd" d="M4.5159 0.944934C5.18461 0.914682 5.39782 0.907959 7.10123 0.907959C8.80463 0.907959 9.01784 0.915242 9.68598 0.944934C10.3541 0.974626 10.8102 1.07939 11.2092 1.23121C11.6271 1.3864 12.0062 1.62897 12.3198 1.9427C12.639 2.25027 12.8853 2.62226 13.0426 3.03347C13.1977 3.42563 13.3037 3.87382 13.3345 4.52928C13.3653 5.18755 13.3721 5.39708 13.3721 7.07049C13.3721 8.74445 13.3647 8.95398 13.3345 9.61113C13.3043 10.2666 13.1977 10.7148 13.0426 11.1069C12.8853 11.5182 12.6386 11.8908 12.3198 12.1988C12.0062 12.5126 11.6271 12.7546 11.2092 12.9092C10.8102 13.0616 10.3541 13.1658 9.68712 13.196C9.01784 13.2263 8.80463 13.233 7.10123 13.233C5.39782 13.233 5.18461 13.2257 4.5159 13.196C3.84891 13.1663 3.39284 13.0616 2.99378 12.9092C2.5753 12.7546 2.19614 12.5121 1.88269 12.1988C1.56366 11.8911 1.31678 11.5186 1.15926 11.1075C1.00477 10.7153 0.898732 10.2672 0.867948 9.61169C0.837163 8.95342 0.830322 8.74389 0.830322 7.07049C0.830322 5.39652 0.837733 5.18699 0.867948 4.5304C0.898162 3.87382 1.00477 3.42563 1.15926 3.03347C1.31701 2.62231 1.56409 2.24988 1.88326 1.94214C2.19626 1.6287 2.57504 1.38608 2.99321 1.23121C3.39227 1.07939 3.84834 0.975187 4.51533 0.944934H4.5159ZM9.63524 2.05419C8.97395 2.0245 8.77556 2.01833 7.10123 2.01833C5.4269 2.01833 5.22851 2.0245 4.56721 2.05419C3.95551 2.08164 3.62373 2.18192 3.40253 2.26652C3.11008 2.37856 2.90086 2.51134 2.68138 2.72703C2.47333 2.92594 2.31321 3.16808 2.21277 3.43572C2.12669 3.65308 2.02464 3.97914 1.99671 4.58026C1.9665 5.23013 1.96023 5.42509 1.96023 7.07049C1.96023 8.71588 1.9665 8.91084 1.99671 9.56071C2.02464 10.1618 2.12669 10.4879 2.21277 10.7053C2.31311 10.9725 2.4733 11.2151 2.68138 11.4139C2.88376 11.6184 3.1306 11.7759 3.40253 11.8745C3.62373 11.9591 3.95551 12.0593 4.56721 12.0868C5.22851 12.1165 5.42633 12.1226 7.10123 12.1226C8.77613 12.1226 8.97395 12.1165 9.63524 12.0868C10.2469 12.0593 10.5787 11.9591 10.7999 11.8745C11.0924 11.7624 11.3016 11.6296 11.5211 11.4139C11.7292 11.2151 11.8893 10.9725 11.9897 10.7053C12.0758 10.4879 12.1778 10.1618 12.2057 9.56071C12.236 8.91084 12.2422 8.71588 12.2422 7.07049C12.2422 5.42509 12.236 5.23013 12.2057 4.58026C12.1778 3.97914 12.0758 3.65308 11.9897 3.43572C11.8757 3.14832 11.7406 2.94271 11.5211 2.72703C11.3187 2.52258 11.0723 2.36523 10.7999 2.26652C10.5787 2.18192 10.2469 2.08164 9.63524 2.05419ZM6.30026 8.97022C6.74758 9.15321 7.24567 9.17791 7.70946 9.0401C8.17325 8.90228 8.57397 8.61051 8.84318 8.21461C9.11238 7.81871 9.23337 7.34325 9.18547 6.86942C9.13758 6.3956 8.92378 5.95281 8.58059 5.61669C8.36181 5.40183 8.09728 5.23731 7.80604 5.13497C7.5148 5.03264 7.20409 4.99504 6.89628 5.02487C6.58847 5.05471 6.29123 5.15124 6.02594 5.30752C5.76065 5.46379 5.53393 5.67593 5.36208 5.92865C5.19023 6.18138 5.07754 6.4684 5.03212 6.76906C4.9867 7.06972 5.00968 7.37654 5.09941 7.66742C5.18913 7.9583 5.34337 8.22602 5.55101 8.4513C5.75866 8.67657 6.01455 8.8538 6.30026 8.97022ZM4.82204 4.83069C5.12135 4.53655 5.47668 4.30323 5.86774 4.14405C6.2588 3.98486 6.67794 3.90293 7.10123 3.90293C7.52451 3.90293 7.94365 3.98486 8.33471 4.14405C8.72578 4.30323 9.08111 4.53655 9.38042 4.83069C9.67972 5.12482 9.91715 5.47401 10.0791 5.85832C10.2411 6.24262 10.3245 6.65452 10.3245 7.07049C10.3245 7.48645 10.2411 7.89835 10.0791 8.28266C9.91715 8.66696 9.67972 9.01615 9.38042 9.31028C8.77594 9.90432 7.95609 10.238 7.10123 10.238C6.24637 10.238 5.42652 9.90432 4.82204 9.31028C4.21756 8.71625 3.87797 7.91057 3.87797 7.07049C3.87797 6.2304 4.21756 5.42472 4.82204 4.83069ZM11.0394 4.37466C11.1135 4.3059 11.1729 4.22322 11.214 4.13151C11.255 4.03979 11.277 3.94091 11.2785 3.84072C11.2799 3.74053 11.261 3.64107 11.2226 3.54822C11.1843 3.45536 11.1274 3.37101 11.0553 3.30016C10.9832 3.22931 10.8974 3.17339 10.8029 3.13572C10.7084 3.09805 10.6072 3.0794 10.5052 3.08086C10.4033 3.08232 10.3027 3.10387 10.2093 3.14423C10.116 3.18459 10.0319 3.24294 9.9619 3.31583C9.82583 3.45758 9.75133 3.64587 9.75422 3.84072C9.75711 4.03558 9.83716 4.22165 9.97738 4.35945C10.1176 4.49724 10.3069 4.57591 10.5052 4.57875C10.7035 4.58159 10.8951 4.50838 11.0394 4.37466Z" fill="white"/>
</svg>
