<svg width="9" height="15" viewBox="0 0 9 15" fill="none" xmlns="http://www.w3.org/2000/svg">
<path d="M7.84635 0.302734H1.13994C0.88585 0.302734 0.642165 0.40708 0.462494 0.592817C0.282823 0.778555 0.181885 1.03047 0.181885 1.29314V13.178C0.181885 13.4407 0.282823 13.6926 0.462494 13.8783C0.642165 14.0641 0.88585 14.1684 1.13994 14.1684H7.84635C8.10045 14.1684 8.34413 14.0641 8.5238 13.8783C8.70347 13.6926 8.80441 13.4407 8.80441 13.178V1.29314C8.80441 1.03047 8.70347 0.778555 8.5238 0.592817C8.34413 0.40708 8.10045 0.302734 7.84635 0.302734ZM4.97218 13.178H4.01412V12.1876H4.97218V13.178ZM1.13994 11.1972V1.29314H7.84635V11.1972H1.13994Z" fill="white"/>
</svg>
